<?xml version="1.0" standalone="no"?>
<!DOCTYPE svg PUBLIC "-//W3C//DTD SVG 20010904//EN"
 "http://www.w3.org/TR/2001/REC-SVG-20010904/DTD/svg10.dtd">
<svg version="1.0" xmlns="http://www.w3.org/2000/svg"
 width="900.000000pt" height="900.000000pt" viewBox="0 0 900.000000 900.000000"
 preserveAspectRatio="xMidYMid meet">
<metadata>
Created by potrace 1.14, written by Peter Selinger 2001-2017
</metadata>
<g transform="translate(0.000000,900.000000) scale(0.100000,-0.100000)"
fill="#000000" stroke="none">
<path d="M6622 8240 c-236 -43 -444 -200 -546 -413 -114 -239 -96 -523 48
-740 166 -250 478 -381 766 -323 160 33 277 96 392 213 101 103 165 217 199
353 20 79 17 278 -5 360 -69 256 -278 466 -531 535 -72 19 -250 28 -323 15z"/>
<path d="M3815 7929 c-27 -4 -124 -28 -215 -53 -91 -24 -419 -112 -730 -195
-311 -84 -578 -156 -595 -161 -16 -5 -49 -14 -72 -20 -27 -7 -43 -16 -43 -26
0 -12 171 -663 184 -700 4 -9 567 137 1431 372 288 78 302 73 780 -283 176
-132 320 -244 320 -250 0 -6 -180 -163 -400 -349 -220 -186 -499 -422 -620
-524 -121 -103 -241 -213 -267 -245 -102 -126 -157 -270 -165 -436 -10 -186
24 -306 132 -469 35 -52 243 -345 463 -650 220 -305 398 -557 395 -560 -2 -2
-574 -4 -1271 -5 l-1267 0 0 -371 0 -371 105 -6 c58 -3 672 -4 1365 -2 1243 2
1261 3 1338 23 95 26 147 48 222 96 240 154 369 433 334 722 -12 99 -40 173
-179 474 -336 730 -380 826 -380 832 0 4 102 90 228 190 254 206 901 726 918
740 8 6 19 -34 38 -139 34 -187 67 -305 111 -400 76 -165 209 -328 360 -441
82 -61 240 -141 340 -172 153 -46 218 -50 918 -50 l657 0 0 375 0 374 -668 3
-667 3 -67 33 c-37 18 -88 54 -113 79 -76 76 -92 120 -141 387 -52 279 -69
340 -124 455 -104 215 -209 320 -635 636 -171 126 -497 369 -725 539 -228 170
-440 327 -471 348 -127 86 -346 172 -502 198 -73 12 -251 11 -322 -1z"/>
<path d="M768 6372 c-16 -3 -18 -20 -18 -188 l0 -184 1254 0 1255 0 36 23 c65
41 475 339 475 346 0 6 -2969 9 -3002 3z"/>
<path d="M750 5438 l0 -188 1048 0 1048 0 10 68 c6 38 32 119 57 182 26 63 44
116 41 119 -3 3 -500 6 -1105 6 l-1099 0 0 -187z"/>
<path d="M750 4690 l0 -190 1085 0 c597 0 1085 4 1085 8 0 4 -4 12 -8 17 -18
20 -43 101 -68 218 -14 67 -31 125 -37 129 -7 4 -472 7 -1034 7 l-1023 1 0
-190z"/>
<path d="M3294 2168 c-43 -46 -278 -289 -522 -542 -363 -375 -441 -461 -430
-471 7 -7 150 -101 317 -210 l305 -196 51 53 c219 225 1239 1273 1314 1351
l95 97 -526 0 -525 0 -79 -82z"/>
</g>
</svg>
